<svg id="svg" version="1.1" width="400" height="400" viewBox="0 0 400 400" xmlns="http://www.w3.org/2000/svg" xmlns:xlink="http://www.w3.org/1999/xlink"><g id="svgg"><path id="path0" d="M179.500 63.628 C 178.523 64.203,178.627 65.475,179.700 66.077 C 181.751 67.230,199.873 66.408,200.050 65.155 C 200.078 64.960,200.123 64.577,200.150 64.304 C 200.178 64.031,200.740 63.699,201.400 63.565 C 202.060 63.432,197.560 63.299,191.400 63.269 C 184.342 63.236,179.941 63.369,179.500 63.628 M209.600 63.583 C 210.720 63.764,210.983 63.977,210.915 64.645 C 210.788 65.906,214.071 66.478,221.339 66.460 C 228.446 66.443,229.749 66.179,229.922 64.722 C 230.097 63.248,229.391 63.161,218.079 63.265 C 212.645 63.315,208.830 63.458,209.600 63.583 M168.000 66.810 C 168.000 68.288,169.071 68.800,172.166 68.800 C 175.386 68.800,176.800 68.178,176.800 66.761 L 176.800 65.600 172.400 65.600 L 168.000 65.600 168.000 66.810 M232.312 66.783 C 232.530 68.264,234.265 68.933,237.376 68.736 C 239.281 68.615,239.634 68.721,240.518 69.674 C 242.575 71.893,247.300 71.641,247.525 69.300 C 247.663 67.876,247.792 67.936,244.200 67.770 C 243.100 67.720,242.004 67.661,241.764 67.639 C 241.525 67.618,241.123 67.150,240.873 66.600 C 240.430 65.627,240.305 65.600,236.278 65.600 L 232.139 65.600 232.312 66.783 M160.888 68.220 C 160.173 68.521,159.481 69.044,159.351 69.383 C 159.170 69.855,158.476 70.000,156.390 70.000 C 153.026 70.000,152.400 70.226,152.400 71.443 C 152.400 72.335,152.252 72.400,150.228 72.400 C 148.280 72.400,148.042 72.493,147.928 73.300 C 147.817 74.079,147.504 74.227,145.600 74.400 C 144.035 74.542,143.384 74.773,143.346 75.200 C 143.317 75.530,143.272 76.025,143.246 76.300 C 143.215 76.634,142.469 76.800,141.000 76.800 C 139.790 76.800,138.821 76.935,138.847 77.100 C 139.062 78.462,138.741 78.800,137.233 78.800 C 135.053 78.800,134.400 79.133,134.400 80.243 C 134.400 80.997,134.188 81.200,133.400 81.200 C 132.600 81.200,132.400 81.400,132.400 82.200 C 132.400 83.097,132.238 83.200,130.833 83.200 C 128.653 83.200,128.000 83.533,128.000 84.643 C 128.000 85.440,127.799 85.600,126.800 85.600 C 125.728 85.600,125.600 85.731,125.600 86.824 C 125.600 87.545,125.434 87.945,125.196 87.798 C 124.725 87.506,123.198 87.921,123.255 88.324 C 123.423 89.501,123.109 90.000,122.200 90.000 C 121.361 90.000,121.200 90.188,121.200 91.173 C 121.200 92.156,121.021 92.367,120.100 92.473 C 119.312 92.564,118.964 92.856,118.872 93.500 C 118.780 94.151,118.476 94.400,117.772 94.400 C 116.959 94.400,116.800 94.596,116.800 95.600 C 116.800 96.667,116.667 96.800,115.600 96.800 C 114.540 96.800,114.400 96.936,114.400 97.972 C 114.400 98.883,114.200 99.173,113.500 99.272 C 112.732 99.381,112.582 99.679,112.478 101.300 C 112.365 103.058,112.091 103.425,111.037 103.226 C 110.409 103.108,110.012 104.137,110.006 105.900 C 109.998 108.218,112.021 108.481,112.940 106.282 C 113.243 105.557,113.965 104.653,114.545 104.273 C 115.282 103.790,115.600 103.233,115.600 102.425 C 115.600 101.020,130.464 86.000,131.855 86.000 C 132.057 86.000,132.530 85.640,132.907 85.200 C 133.284 84.760,133.949 84.400,134.386 84.400 C 134.863 84.400,135.427 83.922,135.800 83.200 C 136.331 82.174,136.649 82.000,138.001 82.000 C 139.218 82.000,139.723 81.784,140.196 81.062 C 140.535 80.546,141.510 79.914,142.364 79.658 C 143.218 79.402,144.016 78.934,144.138 78.618 C 144.259 78.303,145.042 77.928,145.879 77.787 C 148.128 77.407,148.741 77.202,149.301 76.642 C 149.579 76.364,150.615 75.881,151.603 75.568 C 152.740 75.209,153.545 74.669,153.795 74.100 C 154.124 73.350,154.504 73.200,156.069 73.200 C 158.735 73.200,160.000 72.638,160.000 71.453 C 160.000 70.260,160.784 69.906,161.793 70.644 C 163.562 71.938,167.051 70.929,167.269 69.061 L 167.423 67.737 164.805 67.705 C 163.366 67.688,161.603 67.919,160.888 68.220 M248.800 71.088 C 248.800 72.610,249.458 73.200,251.158 73.200 C 252.130 73.200,252.898 73.527,253.678 74.275 C 254.562 75.121,255.204 75.355,256.700 75.375 L 258.600 75.400 258.724 73.900 L 258.848 72.400 256.651 72.400 C 254.551 72.400,254.448 72.351,254.327 71.300 C 254.204 70.236,254.111 70.196,251.500 70.068 L 248.800 69.936 248.800 71.088 M259.200 75.620 C 259.200 76.652,259.432 76.938,260.693 77.465 C 261.515 77.808,262.415 78.415,262.694 78.813 C 262.973 79.211,263.786 79.660,264.500 79.810 C 265.215 79.961,266.276 80.531,266.858 81.076 C 267.460 81.642,268.320 82.035,268.858 81.990 C 270.506 81.853,270.800 81.981,270.800 82.835 C 270.800 83.383,271.187 83.816,271.927 84.095 C 272.547 84.329,273.349 85.033,273.709 85.660 C 274.068 86.287,274.622 86.800,274.939 86.800 C 275.255 86.800,275.621 87.078,275.752 87.418 C 275.882 87.758,276.621 88.300,277.394 88.623 C 278.167 88.946,278.800 89.361,278.800 89.545 C 278.800 89.728,279.520 90.203,280.400 90.600 C 281.280 90.997,282.000 91.521,282.000 91.765 C 282.000 92.009,282.540 92.655,283.201 93.201 C 283.861 93.746,284.609 94.824,284.862 95.596 C 285.115 96.368,285.655 97.235,286.061 97.523 C 286.468 97.810,286.800 98.254,286.800 98.509 C 286.800 98.763,287.144 99.338,287.565 99.786 C 290.342 102.740,290.886 103.430,291.395 104.649 C 291.708 105.398,292.242 106.118,292.582 106.248 C 292.922 106.379,293.200 106.798,293.200 107.181 C 293.200 108.044,294.431 109.200,295.350 109.200 C 295.914 109.200,296.020 109.531,295.941 111.049 C 295.858 112.656,295.988 113.001,296.936 113.692 C 297.731 114.271,297.958 114.702,297.773 115.285 C 297.407 116.438,298.384 119.563,299.257 120.030 C 299.778 120.309,300.000 120.875,300.000 121.925 C 300.000 123.810,300.944 125.200,302.223 125.200 C 303.163 125.200,303.200 125.098,303.194 122.500 C 303.187 119.621,302.869 118.684,301.963 118.879 C 301.536 118.971,301.375 118.419,301.297 116.600 C 301.141 112.968,300.938 112.400,299.792 112.400 C 298.910 112.400,298.794 112.223,298.750 110.800 C 298.671 108.269,298.647 108.207,297.724 108.075 C 297.111 107.988,296.811 107.628,296.724 106.875 C 296.627 106.038,296.357 105.772,295.500 105.673 C 294.450 105.553,294.400 105.447,294.400 103.373 C 294.400 101.209,294.395 101.200,293.157 101.200 C 292.174 101.200,291.967 101.064,292.164 100.549 C 292.480 99.726,291.732 98.800,290.751 98.800 C 290.151 98.800,289.999 98.499,289.994 97.300 C 289.987 95.514,289.700 95.002,288.500 94.627 C 287.890 94.437,287.600 94.032,287.600 93.373 C 287.600 92.609,287.391 92.400,286.627 92.400 C 285.862 92.400,285.626 92.164,285.527 91.300 C 285.427 90.436,285.164 90.173,284.300 90.073 C 283.436 89.974,283.200 89.738,283.200 88.973 C 283.200 88.227,282.988 88.000,282.288 88.000 C 281.641 88.000,281.243 87.650,280.922 86.800 C 280.632 86.029,280.171 85.582,279.635 85.550 C 278.259 85.468,278.205 85.441,277.064 84.300 C 276.459 83.695,275.612 83.200,275.182 83.200 C 274.615 83.200,274.400 82.926,274.400 82.200 C 274.400 81.356,274.213 81.200,273.200 81.200 C 272.201 81.200,272.000 81.040,272.000 80.243 C 272.000 79.133,271.347 78.800,269.167 78.800 C 267.762 78.800,267.600 78.697,267.600 77.800 C 267.600 76.855,267.480 76.800,265.400 76.800 C 263.222 76.800,263.200 76.788,263.200 75.600 C 263.200 74.427,263.156 74.400,261.200 74.400 C 259.237 74.400,259.200 74.423,259.200 75.620 M107.767 108.587 C 107.648 109.063,107.583 109.620,107.623 109.826 C 107.934 111.441,107.553 112.400,106.600 112.400 C 105.655 112.400,105.600 112.520,105.600 114.600 C 105.600 116.680,105.545 116.800,104.600 116.800 C 103.850 116.800,103.583 117.025,103.532 117.700 C 103.494 118.195,103.423 118.870,103.374 119.200 C 103.325 119.530,103.266 121.092,103.243 122.672 C 103.203 125.331,103.133 125.554,102.300 125.672 L 101.400 125.800 101.400 138.800 L 101.400 151.800 102.593 151.800 C 104.223 151.800,104.343 150.916,104.392 138.505 L 104.433 128.411 105.516 126.320 C 106.468 124.484,106.586 123.850,106.484 121.115 C 106.394 118.673,106.488 118.000,106.922 118.000 C 107.761 118.000,108.677 116.764,108.999 115.200 C 109.157 114.430,109.653 113.401,110.101 112.913 C 111.113 111.810,111.611 108.022,110.751 107.960 C 110.448 107.939,109.701 107.876,109.092 107.822 C 108.246 107.746,107.933 107.927,107.767 108.587 M191.200 115.514 C 189.608 115.704,188.451 116.445,188.320 117.357 C 188.218 118.075,187.973 118.180,186.664 118.066 C 185.113 117.931,182.800 118.623,182.800 119.222 C 182.800 119.401,182.307 119.604,181.705 119.673 C 180.997 119.755,180.327 120.244,179.805 121.061 C 179.333 121.801,178.540 122.418,177.885 122.554 C 175.917 122.963,173.600 125.152,173.600 126.603 C 173.600 127.555,173.360 127.981,172.637 128.310 C 171.493 128.832,170.880 130.932,171.614 131.816 C 172.018 132.303,171.920 132.400,171.029 132.400 C 168.452 132.400,167.707 143.915,170.100 146.756 C 170.705 147.474,171.200 148.528,171.200 149.097 C 171.200 149.667,171.646 150.598,172.192 151.167 C 173.828 152.871,176.932 156.005,178.004 157.035 C 178.560 157.569,179.491 158.000,180.090 158.000 C 180.750 158.000,181.333 158.302,181.586 158.773 C 181.813 159.198,182.404 159.669,182.900 159.819 C 183.395 159.969,184.160 160.415,184.600 160.810 C 185.040 161.205,186.120 161.720,187.000 161.954 C 187.880 162.188,188.825 162.741,189.100 163.184 C 189.378 163.632,190.398 164.189,191.400 164.442 C 192.390 164.691,193.200 165.063,193.200 165.268 C 193.200 165.844,195.812 166.800,197.387 166.800 C 198.178 166.800,198.800 167.001,198.800 167.256 C 198.800 168.119,200.204 168.775,202.077 168.787 C 203.477 168.797,204.094 168.999,204.502 169.581 C 205.277 170.689,207.148 171.303,208.900 171.027 C 210.207 170.821,210.400 170.892,210.400 171.581 C 210.400 173.091,213.577 173.955,215.767 173.040 C 217.247 172.421,217.600 172.539,217.600 173.653 C 217.600 174.919,221.203 176.055,222.692 175.258 C 224.526 174.276,223.386 172.400,220.955 172.400 C 219.501 172.400,218.798 172.237,218.794 171.900 C 218.779 170.674,218.007 170.304,214.949 170.056 C 212.166 169.830,211.800 169.708,211.800 169.010 C 211.800 168.165,211.085 167.969,207.600 167.858 C 206.022 167.807,205.775 167.677,205.596 166.800 C 205.399 165.834,205.284 165.800,202.196 165.800 L 199.000 165.800 198.800 164.600 C 198.690 163.940,198.375 163.378,198.100 163.350 C 197.825 163.322,196.880 163.278,196.000 163.250 C 194.573 163.205,194.400 163.092,194.400 162.200 C 194.400 161.256,194.278 161.200,192.227 161.200 C 190.153 161.200,190.047 161.150,189.927 160.100 C 189.809 159.074,189.659 158.992,187.700 158.879 C 185.772 158.768,185.600 158.678,185.600 157.779 C 185.600 156.958,185.407 156.800,184.400 156.800 C 183.401 156.800,183.200 156.640,183.200 155.843 C 183.200 154.733,182.547 154.400,180.367 154.400 C 178.962 154.400,178.800 154.297,178.800 153.400 C 178.800 152.614,178.597 152.400,177.850 152.400 C 177.114 152.400,176.846 152.129,176.660 151.200 C 176.469 150.247,176.212 150.000,175.410 150.000 C 174.461 150.000,173.992 148.183,174.353 145.900 C 174.379 145.735,174.265 145.621,174.100 145.647 C 172.179 145.951,172.196 146.010,172.267 139.144 C 172.335 132.606,172.468 132.024,173.900 132.006 C 174.175 132.003,174.400 131.570,174.400 131.043 C 174.400 130.357,174.682 130.016,175.400 129.836 C 176.131 129.652,176.400 129.317,176.400 128.592 C 176.400 127.863,176.614 127.600,177.209 127.600 C 177.683 127.600,178.206 127.187,178.473 126.600 C 178.729 126.037,179.265 125.600,179.699 125.600 C 180.188 125.600,180.635 125.161,180.922 124.400 C 181.243 123.550,181.641 123.200,182.288 123.200 C 182.994 123.200,183.200 122.974,183.200 122.200 C 183.200 121.273,183.347 121.196,185.200 121.150 C 187.694 121.088,187.870 121.063,188.206 120.728 C 188.356 120.578,188.723 120.549,189.022 120.664 C 189.365 120.795,189.663 120.489,189.827 119.836 C 190.082 118.820,190.158 118.799,193.743 118.754 C 198.770 118.690,198.601 118.730,198.596 117.616 C 198.592 116.825,198.317 116.564,197.196 116.288 C 194.923 115.728,192.270 115.386,191.200 115.514 M210.200 116.169 C 208.474 116.578,208.200 116.777,208.200 117.621 L 208.200 118.600 213.500 118.712 C 218.263 118.812,218.800 118.895,218.800 119.532 C 218.800 120.675,219.643 121.200,221.480 121.200 C 223.150 121.200,223.467 121.506,223.247 122.900 C 223.221 123.065,223.728 123.200,224.373 123.200 C 225.356 123.200,225.567 123.379,225.673 124.300 C 225.773 125.164,226.036 125.427,226.900 125.527 C 227.764 125.626,228.000 125.862,228.000 126.627 C 228.000 127.398,228.207 127.600,229.000 127.600 C 229.696 127.600,230.000 127.819,230.000 128.320 C 230.000 129.242,230.758 130.000,231.680 130.000 C 232.286 130.000,232.400 130.348,232.400 132.200 C 232.400 134.280,232.455 134.400,233.400 134.400 C 234.367 134.400,234.400 134.488,234.406 137.100 C 234.413 140.099,234.593 140.565,235.900 140.973 C 236.761 141.242,236.800 141.442,236.800 145.627 L 236.800 150.000 239.572 150.000 L 242.344 150.000 241.989 148.761 C 241.793 148.080,241.456 147.308,241.239 147.047 C 241.022 146.785,240.409 145.228,239.877 143.586 C 239.111 141.222,238.732 140.573,238.055 140.472 C 237.249 140.352,237.214 140.189,237.451 137.641 C 237.716 134.788,237.264 133.200,236.186 133.200 C 235.750 133.200,235.600 132.691,235.600 131.214 C 235.600 129.592,235.443 129.144,234.741 128.768 C 233.550 128.131,231.493 126.020,230.615 124.534 C 230.212 123.851,229.294 123.011,228.575 122.669 C 227.856 122.326,227.152 121.679,227.010 121.232 C 226.846 120.715,226.176 120.263,225.176 119.994 C 224.309 119.760,223.600 119.401,223.600 119.195 C 223.600 118.630,221.199 117.504,220.453 117.720 C 220.094 117.824,219.485 118.039,219.100 118.197 C 218.546 118.426,218.400 118.282,218.400 117.507 C 218.400 115.671,214.789 115.082,210.200 116.169 M302.998 126.100 C 302.668 127.033,302.090 132.689,302.227 133.647 C 303.147 140.081,303.399 140.696,304.735 139.761 C 305.602 139.153,306.106 128.185,305.357 126.233 C 305.070 125.483,303.252 125.381,302.998 126.100 M305.501 142.027 C 306.059 142.762,305.565 143.653,303.189 146.200 C 300.722 148.844,300.803 150.000,303.455 150.000 C 305.592 150.000,305.706 149.918,305.712 148.367 C 305.716 147.659,306.850 147.491,307.270 148.136 C 307.419 148.365,307.521 147.261,307.496 145.683 C 307.472 144.106,307.364 142.903,307.256 143.011 C 307.148 143.119,306.601 142.801,306.042 142.304 C 305.482 141.807,305.239 141.682,305.501 142.027 M103.231 156.180 C 103.151 160.465,103.356 161.200,104.629 161.200 C 107.439 161.200,107.365 153.348,104.550 152.776 L 103.300 152.521 103.231 156.180 M105.643 164.623 C 105.723 167.110,105.782 167.256,106.784 167.457 C 107.687 167.637,107.827 167.853,107.746 168.934 C 107.596 170.927,107.987 171.910,109.035 172.173 C 109.878 172.384,110.000 172.645,110.000 174.228 C 110.000 175.883,110.105 176.078,111.200 176.460 C 112.084 176.768,112.400 177.131,112.400 177.839 C 112.400 178.597,112.611 178.800,113.400 178.800 C 114.280 178.800,114.400 178.972,114.400 180.226 C 114.400 182.043,115.018 183.200,115.988 183.200 C 116.519 183.200,116.785 183.531,116.873 184.300 C 116.964 185.088,117.256 185.436,117.900 185.528 C 118.685 185.639,119.013 186.252,118.847 187.300 C 118.821 187.465,119.328 187.600,119.973 187.600 C 120.956 187.600,121.167 187.779,121.273 188.700 C 121.364 189.488,121.656 189.836,122.300 189.928 C 123.153 190.049,123.368 190.402,123.238 191.466 C 123.206 191.722,123.725 192.052,124.390 192.198 C 125.330 192.404,125.600 192.679,125.600 193.432 C 125.600 194.241,125.797 194.400,126.800 194.400 C 127.813 194.400,128.000 194.556,128.000 195.400 C 128.000 196.063,128.236 196.420,128.700 196.459 C 129.085 196.492,129.670 196.555,130.000 196.600 C 130.330 196.645,131.005 196.708,131.500 196.741 C 132.178 196.785,132.400 197.047,132.400 197.800 C 132.400 198.593,132.602 198.800,133.373 198.800 C 134.138 198.800,134.374 199.036,134.473 199.900 C 134.579 200.817,134.817 201.021,135.900 201.125 C 136.716 201.204,137.200 201.468,137.200 201.835 C 137.200 202.495,138.763 203.200,140.226 203.200 C 141.042 203.200,141.200 203.395,141.200 204.400 C 141.200 205.588,141.222 205.600,143.400 205.600 C 145.480 205.600,145.600 205.655,145.600 206.600 C 145.600 207.544,145.722 207.600,147.773 207.600 C 149.847 207.600,149.953 207.650,150.073 208.700 C 150.173 209.564,150.436 209.827,151.300 209.927 C 152.164 210.026,152.400 210.262,152.400 211.027 C 152.400 211.810,152.615 212.010,153.500 212.049 C 154.105 212.077,155.365 212.134,156.300 212.178 C 157.971 212.256,158.000 212.235,158.000 210.943 C 158.000 209.293,157.026 208.676,155.230 209.191 C 154.182 209.492,153.921 209.437,153.750 208.878 C 153.289 207.374,152.855 206.995,151.459 206.876 C 150.335 206.780,150.000 206.577,150.000 205.990 C 150.000 205.142,148.890 204.400,147.622 204.400 C 147.166 204.400,146.485 204.041,146.109 203.602 C 145.733 203.163,144.832 202.692,144.107 202.556 C 143.283 202.402,142.473 201.864,141.944 201.121 C 141.119 199.963,140.789 199.902,139.100 200.597 C 138.551 200.823,138.398 200.682,138.390 199.943 C 138.379 198.912,134.902 195.200,133.948 195.200 C 133.642 195.200,133.168 194.840,132.893 194.400 C 132.556 193.860,131.960 193.600,131.061 193.600 C 130.041 193.600,129.625 193.374,129.289 192.635 C 129.047 192.104,128.478 191.552,128.024 191.408 C 127.571 191.264,127.200 190.981,127.200 190.780 C 127.200 190.371,124.927 187.826,122.821 185.876 C 122.062 185.174,121.072 184.192,120.621 183.693 C 120.169 183.194,119.305 182.267,118.700 181.632 C 118.095 180.998,117.600 180.183,117.600 179.820 C 117.600 179.458,117.172 178.765,116.648 178.280 C 116.125 177.795,115.628 177.040,115.543 176.602 C 115.459 176.164,114.897 175.570,114.295 175.281 C 113.377 174.841,113.200 174.503,113.200 173.187 C 113.200 171.955,112.985 171.478,112.200 170.963 C 111.475 170.488,111.200 169.953,111.200 169.016 C 111.200 167.733,110.456 166.753,109.122 166.282 C 108.592 166.094,108.494 165.731,108.674 164.624 C 108.958 162.873,108.311 162.000,106.730 162.000 L 105.558 162.000 105.643 164.623 M224.000 175.586 C 224.000 177.043,224.911 177.600,227.294 177.600 C 229.323 177.600,230.000 177.079,230.000 175.520 L 230.000 174.400 227.000 174.400 L 224.000 174.400 224.000 175.586 M230.800 177.986 C 230.800 179.383,231.971 180.194,233.450 179.823 C 234.213 179.632,234.682 179.860,235.603 180.868 C 236.651 182.015,237.025 182.160,238.990 182.179 C 240.423 182.192,241.199 182.368,241.200 182.677 C 241.200 183.509,242.921 184.400,244.526 184.400 C 245.734 184.400,246.121 184.575,246.282 185.194 C 246.461 185.878,248.426 186.789,249.742 186.798 C 249.930 186.799,250.619 187.250,251.273 187.800 C 251.927 188.350,252.865 188.800,253.359 188.800 C 253.852 188.800,254.647 189.250,255.125 189.800 C 255.812 190.590,256.373 190.800,257.797 190.800 C 258.789 190.800,259.600 190.980,259.600 191.200 C 259.600 191.965,261.206 193.200,262.200 193.200 C 262.838 193.200,263.200 193.425,263.200 193.822 C 263.200 194.169,263.952 194.780,264.900 195.202 C 265.835 195.618,266.838 196.347,267.129 196.821 C 267.531 197.475,267.944 197.640,268.850 197.507 C 269.760 197.374,270.147 197.530,270.482 198.166 C 270.916 198.991,276.595 204.800,276.967 204.800 C 277.974 204.800,284.400 210.212,284.400 211.060 C 284.400 211.386,285.390 212.611,286.600 213.783 C 287.810 214.955,288.800 216.156,288.800 216.453 C 288.800 216.749,289.295 217.504,289.900 218.130 C 290.505 218.756,291.467 219.748,292.037 220.336 C 292.607 220.923,293.202 222.086,293.359 222.920 C 293.555 223.966,293.939 224.571,294.595 224.871 C 295.272 225.179,295.624 225.759,295.813 226.877 C 296.013 228.063,296.328 228.544,297.091 228.834 C 297.993 229.178,298.080 229.388,297.893 230.781 C 297.644 232.640,298.425 234.000,299.742 234.000 C 300.595 234.000,300.630 234.125,300.473 236.595 C 300.298 239.344,300.260 239.285,302.464 239.765 L 303.528 239.997 302.969 242.099 C 302.120 245.287,302.587 252.604,303.600 251.987 C 303.710 251.920,304.170 252.063,304.622 252.305 C 305.432 252.738,305.446 252.658,305.551 246.972 C 305.623 243.090,305.517 241.184,305.229 241.150 C 304.993 241.123,304.635 241.078,304.433 241.050 C 304.232 241.023,303.917 240.836,303.733 240.636 C 303.535 240.419,303.643 240.407,304.000 240.605 C 304.448 240.853,304.427 240.740,303.917 240.156 C 303.418 239.585,303.215 238.551,303.163 236.305 C 303.117 234.299,302.937 233.264,302.646 233.318 C 302.401 233.363,302.243 233.181,302.295 232.914 C 302.349 232.641,302.140 232.525,301.816 232.649 C 301.365 232.822,301.216 232.368,301.121 230.535 C 301.006 228.320,300.944 228.194,299.900 228.073 C 298.851 227.953,298.800 227.846,298.800 225.781 C 298.800 223.804,298.713 223.593,297.800 223.364 C 296.906 223.140,296.557 222.392,296.748 221.114 C 296.880 220.230,295.930 218.800,295.210 218.800 C 294.619 218.800,294.400 218.537,294.400 217.827 C 294.400 217.062,294.164 216.826,293.300 216.727 C 292.678 216.655,292.177 216.339,292.146 216.000 C 292.117 215.670,292.072 215.175,292.046 214.900 C 292.021 214.625,291.559 214.400,291.021 214.400 C 290.122 214.400,290.032 214.228,289.921 212.300 C 289.808 210.341,289.726 210.191,288.700 210.073 C 287.836 209.974,287.600 209.738,287.600 208.973 C 287.600 208.209,287.391 208.000,286.627 208.000 C 285.862 208.000,285.626 207.764,285.527 206.900 C 285.427 206.036,285.164 205.773,284.300 205.673 C 283.439 205.574,283.200 205.337,283.200 204.581 C 283.200 203.898,282.922 203.545,282.250 203.377 C 281.728 203.246,281.102 202.702,280.859 202.169 C 280.489 201.358,280.131 201.200,278.659 201.200 C 277.025 201.200,276.883 201.115,276.660 200.000 C 276.469 199.047,276.212 198.800,275.410 198.800 C 274.599 198.800,274.400 198.603,274.400 197.800 C 274.400 196.956,274.213 196.800,273.200 196.800 C 272.094 196.800,271.876 196.527,272.034 195.345 C 272.105 194.813,270.939 194.412,269.300 194.406 C 267.755 194.401,267.600 194.309,267.600 193.400 C 267.600 192.681,267.384 192.400,266.833 192.400 C 265.511 192.400,264.880 191.980,265.076 191.229 C 265.280 190.451,264.293 190.015,262.300 190.005 C 261.463 190.001,261.200 189.806,261.200 189.187 C 261.200 188.180,260.749 188.006,257.143 187.627 C 257.002 187.612,256.776 187.159,256.641 186.621 C 256.425 185.761,256.142 185.627,254.314 185.521 C 252.467 185.414,252.206 185.287,252.000 184.400 C 251.794 183.513,251.533 183.386,249.684 183.279 C 247.773 183.168,247.600 183.077,247.600 182.179 C 247.600 181.239,247.495 181.200,244.951 181.200 C 242.677 181.200,242.370 181.118,242.785 180.618 C 243.364 179.920,242.997 179.149,242.228 179.445 C 241.927 179.560,241.562 179.462,241.417 179.227 C 241.272 178.992,240.193 178.800,239.020 178.800 C 237.078 178.800,236.864 178.710,236.636 177.800 C 236.398 176.853,236.237 176.800,233.592 176.800 L 230.800 176.800 230.800 177.986 M159.750 211.446 C 157.503 212.534,158.304 214.400,161.019 214.400 C 163.043 214.400,163.153 214.454,163.273 215.500 C 163.393 216.541,163.523 216.606,165.700 216.720 C 167.854 216.832,168.000 216.903,168.000 217.838 C 168.000 219.166,173.278 219.196,173.531 217.870 C 173.758 216.678,172.454 215.600,170.784 215.600 C 169.654 215.600,169.141 215.369,168.669 214.649 C 167.922 213.509,164.720 212.837,163.775 213.621 C 163.300 214.015,163.200 213.917,163.200 213.059 C 163.200 211.497,161.391 210.651,159.750 211.446 M175.289 218.223 C 173.312 219.608,174.337 221.200,177.205 221.200 C 178.497 221.200,178.765 221.345,178.872 222.100 C 178.991 222.938,179.224 223.008,182.275 223.116 C 185.506 223.230,185.552 223.246,185.675 224.316 C 185.798 225.386,185.842 225.401,189.100 225.516 C 192.307 225.629,192.400 225.660,192.400 226.616 C 192.400 227.568,192.492 227.600,195.200 227.600 L 198.000 227.600 198.000 226.414 C 198.000 224.915,197.086 224.400,194.426 224.400 C 192.913 224.400,192.400 224.252,192.400 223.814 C 192.400 222.856,190.790 222.281,188.314 222.355 C 186.199 222.418,185.957 222.338,185.625 221.467 C 185.229 220.423,184.197 220.014,181.943 220.005 C 181.001 220.002,180.402 219.781,180.248 219.382 C 179.712 217.984,176.651 217.269,175.289 218.223 M199.220 227.376 C 198.082 228.747,199.027 230.000,201.200 230.000 C 202.983 230.000,203.210 230.101,203.436 231.000 C 203.619 231.729,203.973 232.015,204.743 232.055 C 207.099 232.178,209.417 232.320,209.700 232.359 C 209.865 232.382,210.000 232.850,210.000 233.400 C 210.000 234.345,210.120 234.400,212.200 234.400 C 214.254 234.400,214.400 234.464,214.400 235.357 C 214.400 236.464,215.054 236.800,217.205 236.800 C 218.497 236.800,218.765 236.945,218.872 237.700 C 218.984 238.484,219.271 238.616,221.100 238.721 C 223.035 238.832,223.200 238.920,223.200 239.831 C 223.200 240.606,223.455 240.871,224.378 241.056 C 225.181 241.216,225.595 241.563,225.678 242.146 C 225.782 242.875,226.106 243.018,227.900 243.121 C 229.941 243.238,230.000 243.276,230.000 244.445 C 230.000 245.144,230.167 245.544,230.400 245.400 C 230.620 245.264,230.800 245.333,230.800 245.553 C 230.800 245.774,231.130 245.891,231.533 245.813 C 232.348 245.656,232.583 246.796,231.839 247.294 C 231.536 247.497,231.555 247.590,231.900 247.594 C 232.188 247.597,232.400 248.110,232.400 248.800 C 232.400 249.813,232.556 250.000,233.400 250.000 C 234.377 250.000,234.400 250.068,234.400 252.986 C 234.400 255.967,234.820 256.800,236.325 256.800 C 237.476 256.800,238.088 252.054,237.162 250.307 C 236.853 249.724,236.179 248.426,235.664 247.423 C 234.956 246.042,234.501 245.600,233.790 245.600 C 233.025 245.600,232.827 245.361,232.725 244.316 C 232.629 243.330,232.371 242.978,231.615 242.801 C 230.997 242.657,230.543 242.203,230.399 241.585 C 230.212 240.784,229.885 240.576,228.654 240.474 C 227.390 240.369,227.073 240.155,226.731 239.174 C 226.506 238.528,226.158 238.000,225.957 238.000 C 225.757 238.000,225.028 237.460,224.337 236.800 C 223.646 236.140,222.658 235.600,222.141 235.600 C 221.623 235.600,220.820 235.220,220.355 234.755 C 219.891 234.291,218.858 233.731,218.059 233.510 C 217.261 233.290,216.097 232.680,215.473 232.155 C 214.070 230.974,211.268 230.731,210.100 231.688 C 209.721 231.999,209.600 231.819,209.600 230.945 C 209.600 229.398,208.390 228.664,206.396 229.001 C 205.005 229.236,204.824 229.159,204.332 228.129 C 203.679 226.761,200.160 226.243,199.220 227.376 M97.000 241.599 C 97.771 241.931,97.769 241.945,96.924 241.972 C 95.891 242.005,95.387 242.621,96.055 243.034 C 96.367 243.227,96.416 243.149,96.200 242.800 C 95.980 242.443,96.032 242.373,96.365 242.578 C 97.011 242.977,96.549 243.400,95.467 243.400 C 94.649 243.400,94.598 243.592,94.558 246.800 C 94.535 248.670,94.591 249.536,94.681 248.724 C 94.820 247.475,95.008 247.230,95.910 247.124 C 96.902 247.008,97.643 246.098,98.127 244.399 C 98.270 243.901,99.243 243.802,103.849 243.820 C 106.902 243.832,120.450 243.888,133.956 243.946 L 158.513 244.050 159.730 245.425 C 160.582 246.388,161.290 246.800,162.092 246.800 L 163.237 246.800 163.118 244.100 L 163.000 241.400 129.600 241.327 C 110.605 241.285,96.545 241.403,97.000 241.599 M163.064 249.369 C 162.950 250.046,162.645 251.590,162.387 252.800 C 161.564 256.651,162.448 261.310,164.081 261.737 C 164.785 261.921,164.837 262.168,164.587 264.164 C 164.314 266.349,164.330 266.397,165.560 267.093 C 166.607 267.685,166.773 267.974,166.579 268.874 C 166.409 269.663,166.577 270.156,167.214 270.734 C 167.690 271.166,168.247 271.673,168.452 271.860 C 168.657 272.047,170.528 273.979,172.611 276.153 C 176.174 279.873,176.474 280.093,177.713 279.892 C 178.841 279.709,179.121 279.836,179.663 280.781 C 180.178 281.678,180.657 281.925,182.224 282.102 C 183.293 282.222,184.355 282.597,184.608 282.944 C 186.045 284.908,196.542 284.722,196.071 282.741 C 195.800 281.599,195.015 281.396,190.381 281.267 C 186.616 281.161,185.589 281.013,185.550 280.567 C 185.523 280.255,185.478 279.775,185.450 279.500 C 185.418 279.180,184.580 278.957,183.125 278.881 C 181.129 278.776,180.835 278.654,180.725 277.881 C 180.619 277.135,180.308 276.981,178.700 276.878 C 177.596 276.807,176.781 276.556,176.754 276.278 C 176.728 276.015,176.683 275.530,176.654 275.200 C 176.623 274.861,176.122 274.545,175.500 274.473 C 174.636 274.374,174.400 274.138,174.400 273.373 C 174.400 272.627,174.188 272.400,173.488 272.400 C 172.841 272.400,172.443 272.050,172.122 271.200 C 171.818 270.395,171.395 270.000,170.835 270.000 C 170.118 270.000,170.000 269.757,170.000 268.280 C 170.000 266.437,169.475 265.600,168.320 265.600 C 167.714 265.600,167.600 265.252,167.600 263.400 C 167.600 261.320,167.545 261.200,166.600 261.200 L 165.600 261.200 165.556 256.300 C 165.531 253.605,165.544 250.995,165.584 250.500 C 165.624 250.005,165.456 249.600,165.211 249.600 C 164.966 249.600,164.818 249.303,164.882 248.941 C 164.959 248.511,164.699 248.256,164.136 248.210 C 163.460 248.154,163.226 248.408,163.064 249.369 M94.652 250.681 C 94.153 251.180,94.421 264.478,94.940 264.997 C 97.400 267.457,98.762 259.600,97.142 252.300 C 96.731 250.448,95.612 249.721,94.652 250.681 M305.443 257.433 C 305.309 257.781,305.200 259.131,305.200 260.433 C 305.200 262.833,305.194 262.823,306.900 262.960 C 307.522 263.010,307.699 258.046,307.102 257.300 C 306.549 256.609,305.734 256.674,305.443 257.433 M236.800 261.000 C 236.800 263.222,236.815 263.251,237.900 263.127 C 238.936 263.007,239.000 262.884,239.000 261.000 C 239.000 259.116,238.936 258.993,237.900 258.873 C 236.815 258.749,236.800 258.778,236.800 261.000 M302.893 266.680 C 302.173 269.138,301.830 276.474,302.360 278.080 C 302.902 279.722,302.601 280.800,301.601 280.800 C 300.650 280.800,300.289 282.373,300.624 285.056 C 300.888 287.163,300.874 287.200,299.860 287.200 C 298.480 287.200,297.865 288.450,298.090 290.795 C 298.259 292.559,298.201 292.700,297.139 293.101 C 296.517 293.335,295.845 293.956,295.646 294.480 C 295.446 295.004,294.996 295.671,294.645 295.963 C 294.293 296.255,293.830 297.147,293.614 297.947 C 293.380 298.819,292.866 299.560,292.331 299.800 C 291.829 300.025,291.299 300.748,291.120 301.453 C 290.938 302.171,290.478 302.791,290.044 302.904 C 289.527 303.040,289.201 303.610,289.016 304.703 C 288.788 306.056,288.516 306.407,287.250 306.977 C 286.342 307.387,285.457 308.204,284.999 309.055 C 284.193 310.550,282.462 312.000,281.481 312.000 C 281.154 312.000,280.782 312.270,280.655 312.600 C 280.529 312.930,280.061 313.200,279.616 313.200 C 279.171 313.200,278.580 313.570,278.303 314.023 C 278.027 314.475,277.215 315.126,276.500 315.468 C 275.785 315.811,275.200 316.350,275.200 316.666 C 275.200 316.982,274.525 317.520,273.700 317.862 C 272.875 318.204,271.878 318.825,271.484 319.242 C 271.091 319.659,270.407 320.000,269.966 320.000 C 269.492 320.000,268.883 320.491,268.481 321.197 C 267.957 322.119,267.516 322.396,266.570 322.397 C 265.777 322.399,265.005 322.756,264.400 323.400 C 263.883 323.950,263.177 324.401,262.830 324.402 C 260.688 324.410,259.200 325.243,259.200 326.436 L 259.200 327.634 262.300 327.517 C 265.169 327.409,265.410 327.333,265.528 326.500 C 265.637 325.729,265.898 325.600,267.348 325.600 C 269.165 325.600,270.000 325.071,270.000 323.920 C 270.000 323.427,270.302 323.200,270.957 323.200 C 271.908 323.200,272.608 322.261,272.178 321.564 C 272.053 321.362,272.932 321.200,274.149 321.200 C 276.344 321.200,277.342 320.401,276.615 319.225 C 276.480 319.005,277.271 318.791,278.473 318.721 C 280.334 318.614,280.593 318.488,280.800 317.600 C 280.966 316.884,281.340 316.564,282.116 316.473 C 282.963 316.375,283.200 316.134,283.200 315.373 C 283.200 314.599,283.407 314.400,284.210 314.400 C 285.012 314.400,285.269 314.153,285.460 313.200 C 285.646 312.271,285.914 312.000,286.650 312.000 C 287.390 312.000,287.600 311.785,287.600 311.027 C 287.600 310.262,287.836 310.026,288.700 309.927 C 289.564 309.827,289.827 309.564,289.927 308.700 C 290.026 307.836,290.262 307.600,291.027 307.600 C 292.031 307.600,292.058 307.528,292.168 304.600 C 292.205 303.604,292.398 303.379,293.306 303.273 C 294.164 303.174,294.400 302.936,294.400 302.173 C 294.400 301.472,294.620 301.200,295.186 301.200 C 296.180 301.200,296.800 300.058,296.800 298.226 C 296.800 296.866,297.173 296.543,298.500 296.753 C 298.665 296.779,298.800 296.260,298.800 295.600 C 298.800 294.662,298.977 294.400,299.610 294.400 C 300.680 294.400,301.200 292.954,301.200 289.974 C 301.200 288.668,301.380 287.578,301.600 287.550 C 301.820 287.522,302.225 287.478,302.500 287.450 C 303.068 287.393,303.082 287.317,303.150 283.888 C 303.198 281.478,303.249 281.357,304.409 280.919 L 305.618 280.463 305.509 272.931 L 305.400 265.400 304.369 265.280 C 303.483 265.177,303.276 265.373,302.893 266.680 M234.667 265.867 C 234.520 266.013,234.400 266.991,234.400 268.039 C 234.400 269.710,234.289 269.960,233.500 270.072 C 232.716 270.184,232.584 270.471,232.479 272.300 C 232.362 274.331,232.319 274.400,231.179 274.400 C 230.136 274.400,230.000 274.538,230.000 275.600 C 230.000 276.788,229.978 276.800,227.800 276.800 C 225.733 276.800,225.600 276.859,225.600 277.779 C 225.600 278.678,225.428 278.768,223.500 278.879 C 221.549 278.991,221.391 279.077,221.275 280.084 C 221.152 281.154,221.106 281.170,217.875 281.284 C 214.673 281.397,214.597 281.423,214.478 282.449 C 214.334 283.692,214.798 283.928,218.051 284.268 C 220.505 284.525,222.570 283.976,222.959 282.963 C 223.081 282.645,223.719 282.400,224.427 282.400 C 225.302 282.400,226.016 282.039,226.800 281.200 C 227.559 280.388,228.305 280.000,229.109 280.000 C 230.730 280.000,235.600 275.227,235.600 273.637 C 235.600 272.961,236.034 272.197,236.800 271.525 C 238.174 270.319,238.377 268.689,237.390 266.780 C 236.808 265.655,235.363 265.171,234.667 265.867 M96.800 270.669 C 96.800 274.382,96.805 274.400,97.800 274.400 C 98.775 274.400,98.800 274.472,98.800 277.320 C 98.800 280.336,99.174 281.200,100.480 281.200 C 101.086 281.200,101.200 281.548,101.200 283.400 C 101.200 285.467,101.259 285.600,102.179 285.600 C 103.078 285.600,103.168 285.772,103.279 287.700 C 103.392 289.659,103.474 289.809,104.500 289.927 C 105.550 290.047,105.600 290.153,105.600 292.227 C 105.600 294.384,105.609 294.400,106.824 294.400 C 107.545 294.400,107.945 294.566,107.798 294.804 C 107.506 295.275,107.921 296.802,108.324 296.745 C 109.501 296.577,110.000 296.891,110.000 297.800 C 110.000 298.644,110.187 298.800,111.200 298.800 C 112.388 298.800,112.400 298.822,112.400 301.000 C 112.400 303.064,112.460 303.200,113.373 303.200 C 114.138 303.200,114.374 303.436,114.473 304.300 C 114.573 305.164,114.836 305.427,115.700 305.527 C 116.564 305.626,116.800 305.862,116.800 306.627 C 116.800 307.385,117.010 307.600,117.750 307.600 C 118.486 307.600,118.754 307.871,118.940 308.800 C 119.131 309.753,119.388 310.000,120.190 310.000 C 121.001 310.000,121.200 310.197,121.200 311.000 C 121.200 311.833,121.400 312.008,122.400 312.050 C 125.419 312.176,125.396 312.167,125.527 313.300 C 125.622 314.131,125.870 314.400,126.539 314.400 C 127.157 314.400,127.562 314.765,127.881 315.610 C 128.133 316.276,128.487 316.795,128.669 316.763 C 129.553 316.609,129.955 316.878,130.072 317.700 C 130.183 318.481,130.472 318.616,132.254 318.719 C 134.172 318.831,134.323 318.917,134.544 320.019 C 134.768 321.139,134.884 321.200,136.790 321.200 C 138.667 321.200,138.800 321.266,138.800 322.200 C 138.800 323.145,138.920 323.200,141.000 323.200 C 143.041 323.200,143.200 323.132,143.200 322.262 C 143.200 321.142,142.053 320.000,140.930 320.000 C 140.486 320.000,139.716 319.648,139.220 319.217 C 138.724 318.787,137.749 318.247,137.054 318.018 C 136.359 317.788,135.612 317.196,135.395 316.700 C 135.124 316.083,134.592 315.761,133.701 315.675 C 132.746 315.583,131.834 314.973,130.261 313.375 C 128.568 311.655,127.858 311.200,126.861 311.200 C 126.167 311.200,125.600 311.038,125.600 310.840 C 125.600 310.191,122.710 307.573,121.379 307.017 C 120.663 306.718,119.962 306.111,119.821 305.668 C 119.607 304.993,117.960 303.352,115.700 301.564 C 115.425 301.347,115.200 300.646,115.200 300.007 C 115.200 299.276,114.885 298.625,114.351 298.251 C 113.884 297.923,113.299 297.317,113.051 296.903 C 111.495 294.306,110.649 293.193,109.815 292.646 C 109.295 292.306,108.754 291.500,108.612 290.855 C 108.470 290.210,108.018 289.378,107.606 289.006 C 107.195 288.633,106.738 287.618,106.591 286.749 C 106.423 285.754,105.991 284.951,105.424 284.579 C 104.929 284.254,104.308 283.271,104.046 282.394 C 103.696 281.229,103.354 280.800,102.771 280.800 C 101.707 280.800,101.395 279.831,101.914 278.139 C 102.424 276.477,101.899 274.588,100.758 273.977 C 100.175 273.666,100.000 273.127,100.000 271.646 C 100.000 268.711,99.378 267.317,97.975 267.111 L 96.800 266.939 96.800 270.669 M201.219 283.578 C 200.900 283.781,200.521 283.875,200.377 283.786 C 200.233 283.697,200.197 284.052,200.297 284.576 C 200.693 286.647,211.298 286.692,211.693 284.624 C 211.787 284.134,211.669 283.696,211.432 283.651 C 209.784 283.337,201.689 283.279,201.219 283.578 M144.319 322.272 C 143.553 322.474,143.165 323.405,143.349 324.600 C 143.451 325.259,143.830 325.421,145.498 325.520 C 147.267 325.624,147.554 325.763,147.769 326.620 C 147.992 327.509,148.216 327.600,150.181 327.600 C 152.246 327.600,152.353 327.651,152.473 328.700 C 152.598 329.783,152.649 329.802,155.700 329.917 C 158.437 330.020,158.800 330.123,158.800 330.793 C 158.800 331.892,159.289 332.064,162.828 332.213 C 165.769 332.336,168.495 333.372,167.774 334.092 C 167.665 334.201,169.152 334.325,171.078 334.368 C 174.356 334.440,174.910 334.618,175.301 335.721 C 175.559 336.452,179.018 336.778,186.000 336.731 C 190.070 336.703,192.932 336.608,192.359 336.519 C 191.517 336.389,191.353 336.182,191.496 335.431 C 191.835 333.660,184.544 332.556,179.400 333.598 C 175.638 334.361,175.416 334.337,175.279 333.154 C 175.012 330.860,167.889 330.250,167.634 332.500 C 167.520 333.507,167.000 332.532,167.000 331.311 C 167.000 329.464,165.877 328.766,163.000 328.826 C 159.608 328.897,159.200 328.829,159.200 328.190 C 159.200 327.388,157.580 326.800,155.374 326.800 C 154.398 326.800,153.600 326.620,153.600 326.400 C 153.600 325.266,151.955 324.400,149.800 324.400 C 148.590 324.400,147.621 324.265,147.647 324.100 C 147.786 323.224,147.481 322.837,146.340 322.439 C 145.647 322.198,145.062 322.021,145.040 322.046 C 145.018 322.072,144.693 322.173,144.319 322.272 M254.464 327.152 C 254.169 327.339,253.708 327.921,253.440 328.446 C 253.137 329.041,252.661 329.360,252.177 329.293 C 249.177 328.882,247.200 329.468,247.200 330.767 C 247.200 331.700,245.946 332.043,244.285 331.567 C 241.448 330.753,237.200 331.392,237.200 332.631 C 237.200 332.908,237.088 333.427,236.951 333.783 C 236.729 334.362,237.245 334.426,241.751 334.375 C 244.659 334.342,246.800 334.156,246.800 333.936 C 246.800 333.725,247.011 333.683,247.268 333.842 C 247.581 334.035,247.653 333.915,247.485 333.478 C 247.130 332.553,247.674 332.342,250.825 332.185 C 253.982 332.027,254.400 331.862,254.400 330.776 C 254.400 330.102,254.689 330.000,256.600 330.000 L 258.800 330.000 258.800 328.400 L 258.800 326.800 256.900 326.806 C 255.855 326.809,254.759 326.965,254.464 327.152 M224.310 333.619 C 219.598 334.168,219.100 334.348,219.367 335.412 C 219.566 336.203,219.432 336.368,218.501 336.484 C 217.895 336.560,220.895 336.669,225.166 336.726 C 235.112 336.858,236.400 336.685,236.400 335.215 C 236.400 333.556,230.986 332.841,224.310 333.619 M196.296 336.384 C 194.791 336.675,193.815 337.200,194.776 337.200 C 195.072 337.200,195.186 337.460,195.047 337.821 C 194.911 338.177,194.978 338.337,195.205 338.197 C 195.422 338.063,195.600 338.121,195.600 338.326 C 195.600 338.877,214.565 338.954,215.587 338.407 C 217.386 337.444,216.585 336.533,213.700 336.261 C 210.161 335.926,198.218 336.011,196.296 336.384 " stroke="none" fill="#994d12" fill-rule="evenodd"></path><path id="path1" d="M201.400 63.551 C 200.740 63.692,200.178 64.031,200.150 64.304 C 200.123 64.577,200.078 64.957,200.050 65.148 C 199.895 66.228,186.877 67.148,182.200 66.409 C 180.660 66.166,178.815 65.865,178.100 65.740 C 176.871 65.525,176.800 65.578,176.800 66.717 C 176.800 68.661,171.466 69.664,168.728 68.236 C 167.463 67.576,167.200 67.750,167.200 69.248 C 167.200 70.907,163.470 71.870,161.793 70.644 C 160.784 69.906,160.000 70.260,160.000 71.453 C 160.000 72.638,158.735 73.200,156.069 73.200 C 154.504 73.200,154.124 73.350,153.795 74.100 C 153.545 74.669,152.740 75.209,151.603 75.568 C 150.615 75.881,149.579 76.364,149.301 76.642 C 148.741 77.202,148.128 77.407,145.879 77.787 C 145.042 77.928,144.259 78.303,144.138 78.618 C 144.016 78.934,143.218 79.402,142.364 79.658 C 141.510 79.914,140.535 80.546,140.196 81.062 C 139.723 81.784,139.218 82.000,138.001 82.000 C 136.649 82.000,136.331 82.174,135.800 83.200 C 135.427 83.922,134.863 84.400,134.386 84.400 C 133.949 84.400,133.284 84.760,132.907 85.200 C 132.530 85.640,132.057 86.000,131.855 86.000 C 130.464 86.000,115.600 101.020,115.600 102.425 C 115.600 103.233,115.282 103.790,114.545 104.273 C 113.965 104.653,113.243 105.557,112.940 106.282 C 112.270 107.886,110.000 108.276,110.000 106.786 C 110.000 106.096,109.878 106.037,109.200 106.400 C 108.214 106.928,108.149 107.897,109.100 107.893 C 111.316 107.884,111.313 107.882,111.108 110.013 C 110.988 111.268,110.608 112.360,110.101 112.913 C 109.653 113.401,109.157 114.430,108.999 115.200 C 108.677 116.764,107.761 118.000,106.922 118.000 C 106.488 118.000,106.394 118.673,106.484 121.115 C 106.586 123.850,106.468 124.484,105.516 126.320 L 104.433 128.411 104.415 138.363 C 104.398 147.662,104.267 150.106,103.705 151.600 C 103.237 152.843,103.332 153.002,104.543 153.001 C 106.754 152.999,107.278 156.404,105.792 161.100 C 105.539 161.896,105.645 162.000,106.704 162.000 C 108.310 162.000,108.959 162.865,108.674 164.624 C 108.494 165.731,108.592 166.094,109.122 166.282 C 110.456 166.753,111.200 167.733,111.200 169.016 C 111.200 169.953,111.475 170.488,112.200 170.963 C 112.985 171.478,113.200 171.955,113.200 173.187 C 113.200 174.503,113.377 174.841,114.295 175.281 C 114.897 175.570,115.459 176.164,115.543 176.602 C 115.628 177.040,116.125 177.795,116.648 178.280 C 117.172 178.765,117.600 179.458,117.600 179.820 C 117.600 180.183,118.095 180.998,118.700 181.632 C 119.305 182.267,120.169 183.194,120.621 183.693 C 121.072 184.192,122.062 185.174,122.821 185.876 C 124.927 187.826,127.200 190.371,127.200 190.780 C 127.200 190.981,127.571 191.264,128.024 191.408 C 128.478 191.552,129.047 192.104,129.289 192.635 C 129.625 193.374,130.041 193.600,131.061 193.600 C 131.960 193.600,132.556 193.860,132.893 194.400 C 133.168 194.840,133.664 195.205,133.996 195.210 C 134.945 195.226,138.400 198.977,138.400 199.991 C 138.400 200.686,138.556 200.821,139.100 200.597 C 140.789 199.902,141.119 199.963,141.944 201.121 C 142.473 201.864,143.283 202.402,144.107 202.556 C 144.832 202.692,145.733 203.163,146.109 203.602 C 146.485 204.041,147.166 204.400,147.622 204.400 C 148.890 204.400,150.000 205.142,150.000 205.990 C 150.000 206.577,150.335 206.780,151.459 206.876 C 152.855 206.995,153.289 207.374,153.750 208.878 C 153.921 209.437,154.182 209.492,155.230 209.191 C 157.125 208.648,158.000 209.279,158.000 211.190 C 158.000 212.050,158.211 212.883,158.468 213.042 C 158.777 213.233,158.854 213.118,158.695 212.703 C 158.528 212.268,158.840 211.887,159.706 211.468 C 161.391 210.652,163.200 211.476,163.200 213.059 C 163.200 213.917,163.300 214.015,163.775 213.621 C 164.720 212.837,167.922 213.509,168.669 214.649 C 169.141 215.369,169.654 215.600,170.784 215.600 C 172.633 215.600,173.808 216.718,173.451 218.138 C 173.295 218.759,173.422 219.287,173.804 219.603 C 174.290 220.006,174.400 219.980,174.400 219.458 C 174.400 217.439,178.876 217.251,180.104 219.219 C 180.437 219.750,181.041 220.002,181.996 220.005 C 184.197 220.014,185.231 220.430,185.625 221.467 C 185.957 222.338,186.199 222.418,188.314 222.355 C 190.790 222.281,192.400 222.856,192.400 223.814 C 192.400 224.252,192.913 224.400,194.426 224.400 C 197.086 224.400,198.000 224.915,198.000 226.414 C 198.000 227.627,198.666 227.974,199.464 227.176 C 200.390 226.250,203.749 226.907,204.333 228.129 C 204.824 229.159,205.005 229.236,206.396 229.001 C 208.390 228.664,209.600 229.398,209.600 230.945 C 209.600 231.819,209.721 231.999,210.100 231.688 C 211.268 230.731,214.070 230.974,215.473 232.155 C 216.097 232.680,217.261 233.290,218.059 233.510 C 218.858 233.731,219.891 234.291,220.355 234.755 C 220.820 235.220,221.623 235.600,222.141 235.600 C 222.658 235.600,223.646 236.140,224.337 236.800 C 225.028 237.460,225.757 238.000,225.957 238.000 C 226.158 238.000,226.506 238.528,226.731 239.174 C 227.073 240.155,227.390 240.369,228.654 240.474 C 229.885 240.576,230.212 240.784,230.399 241.585 C 230.543 242.203,230.997 242.657,231.615 242.801 C 232.371 242.978,232.629 243.330,232.725 244.316 C 232.827 245.361,233.025 245.600,233.790 245.600 C 234.501 245.600,234.956 246.042,235.664 247.423 C 236.179 248.426,236.853 249.723,237.162 250.306 C 237.787 251.486,237.806 254.468,237.195 255.608 C 236.364 257.163,236.703 258.736,237.900 258.873 C 238.936 258.993,239.000 259.116,239.000 261.000 C 239.000 262.884,238.936 263.007,237.900 263.127 C 236.618 263.274,236.381 265.017,237.400 266.800 C 238.385 268.523,238.154 270.337,236.800 271.525 C 236.034 272.197,235.600 272.961,235.600 273.637 C 235.600 275.227,230.730 280.000,229.109 280.000 C 228.305 280.000,227.559 280.388,226.800 281.200 C 226.029 282.026,225.299 282.400,224.459 282.400 C 223.789 282.400,223.096 282.644,222.920 282.942 C 222.080 284.364,219.301 284.782,216.200 283.953 C 214.182 283.414,209.472 283.084,210.600 283.561 C 211.040 283.748,211.509 283.838,211.642 283.762 C 211.775 283.686,211.803 284.050,211.704 284.570 C 211.299 286.684,200.702 286.690,200.297 284.576 C 200.197 284.052,200.233 283.697,200.377 283.786 C 200.521 283.875,200.900 283.783,201.219 283.582 C 202.046 283.062,194.881 283.413,193.474 283.961 C 190.927 284.954,185.634 284.346,184.608 282.944 C 184.355 282.597,183.293 282.222,182.224 282.102 C 180.657 281.925,180.178 281.678,179.663 280.781 C 179.121 279.836,178.841 279.709,177.713 279.892 C 176.474 280.093,176.174 279.873,172.611 276.153 C 170.528 273.979,168.657 272.047,168.452 271.860 C 168.247 271.673,167.690 271.166,167.214 270.734 C 166.577 270.156,166.409 269.663,166.579 268.874 C 166.773 267.974,166.607 267.685,165.560 267.093 C 164.330 266.397,164.314 266.349,164.587 264.164 C 164.837 262.168,164.785 261.921,164.081 261.737 C 162.443 261.309,161.561 256.632,162.397 252.800 C 163.472 247.865,163.422 246.800,162.112 246.800 C 161.288 246.800,160.592 246.398,159.730 245.425 L 158.513 244.050 133.956 243.946 C 120.450 243.888,106.902 243.832,103.849 243.820 C 99.243 243.802,98.270 243.901,98.127 244.399 C 97.638 246.114,96.904 247.008,95.887 247.127 C 94.988 247.231,94.800 247.450,94.800 248.394 C 94.800 249.021,94.702 249.789,94.583 250.101 C 94.418 250.530,94.648 250.625,95.534 250.495 C 97.519 250.204,98.623 257.649,97.377 262.932 C 96.585 266.292,96.749 267.200,98.148 267.200 C 99.338 267.200,100.000 268.789,100.000 271.646 C 100.000 273.127,100.175 273.666,100.758 273.977 C 101.899 274.588,102.424 276.477,101.914 278.139 C 101.395 279.831,101.707 280.800,102.771 280.800 C 103.354 280.800,103.696 281.229,104.046 282.394 C 104.308 283.271,104.929 284.254,105.424 284.579 C 105.991 284.951,106.423 285.754,106.591 286.749 C 106.738 287.618,107.195 288.633,107.606 289.006 C 108.018 289.378,108.470 290.210,108.612 290.855 C 108.754 291.500,109.295 292.306,109.815 292.646 C 110.649 293.193,111.495 294.306,113.051 296.903 C 113.299 297.317,113.884 297.923,114.351 298.251 C 114.885 298.625,115.200 299.276,115.200 300.007 C 115.200 300.646,115.425 301.347,115.700 301.564 C 117.960 303.352,119.607 304.993,119.821 305.668 C 119.962 306.111,120.663 306.718,121.379 307.017 C 122.710 307.573,125.600 310.191,125.600 310.840 C 125.600 311.038,126.167 311.200,126.861 311.200 C 127.858 311.200,128.568 311.655,130.261 313.375 C 131.834 314.973,132.746 315.583,133.701 315.675 C 134.592 315.761,135.124 316.083,135.395 316.700 C 135.612 317.196,136.359 317.788,137.054 318.018 C 137.749 318.247,138.724 318.787,139.220 319.217 C 139.716 319.648,140.517 320.000,140.999 320.000 C 142.121 320.000,143.198 321.187,143.206 322.431 C 143.210 322.968,143.343 323.209,143.506 322.971 C 144.020 322.221,145.140 322.021,146.389 322.456 C 147.486 322.839,147.785 323.229,147.647 324.100 C 147.621 324.265,148.590 324.400,149.800 324.400 C 151.955 324.400,153.600 325.266,153.600 326.400 C 153.600 326.620,154.398 326.800,155.374 326.800 C 157.580 326.800,159.200 327.388,159.200 328.190 C 159.200 328.829,159.608 328.897,163.000 328.826 C 165.821 328.768,167.000 329.472,167.000 331.216 C 167.000 332.326,167.784 333.575,167.806 332.500 C 167.853 330.227,175.012 330.854,175.279 333.154 C 175.416 334.337,175.638 334.361,179.400 333.598 C 184.509 332.563,191.835 333.660,191.500 335.411 C 191.278 336.575,193.317 336.985,196.411 336.398 C 198.939 335.919,210.769 335.894,214.400 336.360 C 218.163 336.844,219.655 336.558,219.367 335.410 C 219.085 334.287,219.509 334.158,225.400 333.568 C 228.940 333.214,230.488 333.239,233.323 333.698 L 236.846 334.269 237.064 333.180 C 237.427 331.366,240.889 330.593,244.285 331.567 C 245.946 332.043,247.200 331.700,247.200 330.767 C 247.200 329.468,249.177 328.882,252.177 329.293 C 252.661 329.360,253.137 329.041,253.440 328.446 C 254.270 326.822,258.395 325.962,258.935 327.300 C 259.046 327.575,259.151 327.223,259.168 326.519 C 259.200 325.240,260.636 324.410,262.830 324.402 C 263.177 324.401,263.883 323.950,264.400 323.400 C 265.005 322.756,265.777 322.399,266.570 322.397 C 267.516 322.396,267.957 322.119,268.481 321.197 C 268.883 320.491,269.492 320.000,269.966 320.000 C 270.407 320.000,271.091 319.659,271.484 319.242 C 271.878 318.825,272.875 318.204,273.700 317.862 C 274.525 317.520,275.200 316.982,275.200 316.666 C 275.200 316.350,275.785 315.811,276.500 315.468 C 277.215 315.126,278.027 314.475,278.303 314.023 C 278.580 313.570,279.171 313.200,279.616 313.200 C 280.061 313.200,280.529 312.930,280.655 312.600 C 280.782 312.270,281.154 312.000,281.481 312.000 C 282.462 312.000,284.193 310.550,284.999 309.055 C 285.457 308.204,286.342 307.387,287.250 306.977 C 288.516 306.407,288.788 306.056,289.016 304.703 C 289.201 303.610,289.527 303.040,290.044 302.904 C 290.478 302.791,290.938 302.171,291.120 301.453 C 291.299 300.748,291.829 300.025,292.331 299.800 C 292.866 299.560,293.380 298.819,293.614 297.947 C 293.830 297.147,294.293 296.255,294.645 295.963 C 294.996 295.671,295.446 295.004,295.646 294.480 C 295.845 293.956,296.517 293.335,297.139 293.101 C 298.201 292.700,298.259 292.559,298.090 290.795 C 297.865 288.450,298.480 287.200,299.860 287.200 C 300.874 287.200,300.888 287.163,300.624 285.056 C 300.289 282.373,300.650 280.800,301.601 280.800 C 302.601 280.800,302.902 279.722,302.360 278.080 C 301.117 274.311,302.678 265.033,304.511 265.302 C 305.597 265.461,305.660 265.398,305.453 264.363 C 305.286 263.531,305.402 263.208,305.915 263.073 C 306.532 262.911,306.529 262.888,305.880 262.846 C 305.211 262.803,305.176 262.393,305.381 257.100 C 305.503 253.965,305.463 251.615,305.291 251.878 C 303.363 254.839,301.578 247.324,302.969 242.099 L 303.528 239.997 302.464 239.765 C 300.260 239.285,300.298 239.344,300.473 236.595 C 300.630 234.125,300.595 234.000,299.742 234.000 C 298.425 234.000,297.644 232.640,297.893 230.781 C 298.080 229.388,297.993 229.178,297.091 228.834 C 296.328 228.544,296.013 228.063,295.813 226.877 C 295.624 225.759,295.272 225.179,294.595 224.871 C 293.939 224.571,293.555 223.966,293.359 222.920 C 293.202 222.086,292.607 220.923,292.037 220.336 C 291.467 219.748,290.505 218.756,289.900 218.130 C 289.295 217.504,288.800 216.749,288.800 216.453 C 288.800 216.156,287.810 214.955,286.600 213.783 C 285.390 212.611,284.400 211.386,284.400 211.060 C 284.400 210.212,277.974 204.800,276.967 204.800 C 276.595 204.800,270.916 198.991,270.482 198.166 C 270.147 197.530,269.760 197.374,268.850 197.507 C 267.944 197.640,267.531 197.475,267.129 196.821 C 266.838 196.347,265.835 195.618,264.900 195.202 C 263.952 194.780,263.200 194.169,263.200 193.822 C 263.200 193.425,262.838 193.200,262.200 193.200 C 261.206 193.200,259.600 191.965,259.600 191.200 C 259.600 190.980,258.789 190.800,257.797 190.800 C 256.373 190.800,255.812 190.590,255.125 189.800 C 254.647 189.250,253.852 188.800,253.359 188.800 C 252.865 188.800,251.927 188.350,251.273 187.800 C 250.619 187.250,249.930 186.799,249.742 186.798 C 248.426 186.789,246.461 185.878,246.282 185.194 C 246.121 184.575,245.734 184.400,244.526 184.400 C 242.921 184.400,241.200 183.509,241.200 182.677 C 241.199 182.368,240.423 182.192,238.990 182.179 C 237.025 182.160,236.651 182.015,235.603 180.868 C 234.682 179.860,234.213 179.632,233.450 179.823 C 231.971 180.194,230.800 179.383,230.800 177.986 C 230.800 176.812,229.939 176.328,229.400 177.200 C 228.498 178.660,224.000 177.308,224.000 175.577 C 224.000 174.394,223.989 174.389,223.002 175.036 C 221.390 176.092,217.600 175.122,217.600 173.653 C 217.600 172.539,217.247 172.421,215.767 173.040 C 213.577 173.955,210.400 173.091,210.400 171.581 C 210.400 170.892,210.207 170.821,208.900 171.027 C 207.148 171.303,205.277 170.689,204.502 169.581 C 204.094 168.999,203.477 168.797,202.077 168.787 C 200.204 168.775,198.800 168.119,198.800 167.256 C 198.800 167.001,198.178 166.800,197.387 166.800 C 195.812 166.800,193.200 165.844,193.200 165.268 C 193.200 165.063,192.390 164.691,191.400 164.442 C 190.398 164.189,189.378 163.632,189.100 163.184 C 188.825 162.741,187.880 162.188,187.000 161.954 C 186.120 161.720,185.040 161.205,184.600 160.810 C 184.160 160.415,183.395 159.969,182.900 159.819 C 182.404 159.669,181.813 159.198,181.586 158.773 C 181.333 158.302,180.750 158.000,180.090 158.000 C 179.491 158.000,178.560 157.569,178.004 157.035 C 176.932 156.005,173.828 152.871,172.192 151.167 C 171.646 150.598,171.200 149.667,171.200 149.097 C 171.200 148.528,170.705 147.474,170.100 146.756 C 167.707 143.915,168.452 132.400,171.029 132.400 C 171.920 132.400,172.018 132.303,171.614 131.816 C 170.880 130.932,171.493 128.832,172.637 128.310 C 173.360 127.981,173.600 127.555,173.600 126.603 C 173.600 125.152,175.917 122.963,177.885 122.554 C 178.540 122.418,179.333 121.801,179.805 121.061 C 180.327 120.244,180.997 119.755,181.705 119.673 C 182.307 119.604,182.800 119.401,182.800 119.222 C 182.800 118.623,185.113 117.931,186.664 118.066 C 187.957 118.179,188.218 118.071,188.317 117.386 C 188.564 115.657,193.755 114.777,196.099 116.066 C 197.580 116.881,206.891 116.995,210.125 116.238 C 215.102 115.073,218.400 115.579,218.400 117.507 C 218.400 118.282,218.546 118.426,219.100 118.197 C 219.485 118.039,220.094 117.824,220.453 117.720 C 221.199 117.504,223.600 118.630,223.600 119.195 C 223.600 119.401,224.309 119.760,225.176 119.994 C 226.176 120.263,226.846 120.715,227.010 121.232 C 227.152 121.679,227.856 122.326,228.575 122.669 C 229.294 123.011,230.212 123.851,230.615 124.534 C 231.493 126.020,233.550 128.131,234.741 128.768 C 235.443 129.144,235.600 129.592,235.600 131.214 C 235.600 132.691,235.750 133.200,236.186 133.200 C 237.264 133.200,237.716 134.788,237.451 137.641 C 237.212 140.209,237.243 140.351,238.078 140.472 C 238.762 140.572,239.102 141.094,239.618 142.836 C 239.982 144.066,240.652 145.866,241.108 146.836 C 241.563 147.806,242.035 148.916,242.156 149.303 C 242.364 149.966,244.040 149.999,271.888 149.903 L 301.400 149.800 301.540 148.800 C 301.617 148.250,302.448 146.979,303.386 145.975 C 305.385 143.836,306.158 142.545,305.632 142.220 C 305.428 142.094,305.340 141.357,305.436 140.583 C 305.611 139.175,305.610 139.175,304.642 139.809 C 303.376 140.639,303.211 140.225,302.261 133.843 C 302.096 132.733,302.550 127.977,303.000 126.100 C 303.179 125.352,303.049 125.200,302.230 125.200 C 300.943 125.200,300.000 123.815,300.000 121.925 C 300.000 120.875,299.778 120.309,299.257 120.030 C 298.384 119.563,297.407 116.438,297.773 115.285 C 297.958 114.702,297.731 114.271,296.936 113.692 C 295.988 113.001,295.858 112.656,295.941 111.049 C 296.023 109.468,295.927 109.200,295.280 109.200 C 294.391 109.200,293.200 108.005,293.200 107.111 C 293.200 106.767,292.922 106.379,292.582 106.248 C 292.242 106.118,291.708 105.398,291.395 104.649 C 290.886 103.430,290.342 102.740,287.565 99.786 C 287.144 99.338,286.800 98.763,286.800 98.509 C 286.800 98.254,286.468 97.810,286.061 97.523 C 285.655 97.235,285.115 96.368,284.862 95.596 C 284.609 94.824,283.861 93.746,283.201 93.201 C 282.540 92.655,282.000 92.009,282.000 91.765 C 282.000 91.521,281.280 90.997,280.400 90.600 C 279.520 90.203,278.800 89.728,278.800 89.545 C 278.800 89.361,278.167 88.946,277.394 88.623 C 276.621 88.300,275.882 87.758,275.752 87.418 C 275.621 87.078,275.255 86.800,274.939 86.800 C 274.622 86.800,274.068 86.287,273.709 85.660 C 273.349 85.033,272.547 84.329,271.927 84.095 C 271.187 83.816,270.800 83.383,270.800 82.835 C 270.800 81.981,270.506 81.853,268.858 81.990 C 268.320 82.035,267.460 81.642,266.858 81.076 C 266.276 80.531,265.215 79.961,264.500 79.810 C 263.786 79.660,262.973 79.211,262.694 78.813 C 262.415 78.415,261.515 77.808,260.693 77.465 C 259.404 76.926,259.200 76.663,259.200 75.544 C 259.200 74.358,259.154 74.310,258.661 74.984 C 257.892 76.035,255.076 75.614,253.633 74.232 C 252.895 73.525,252.116 73.200,251.158 73.200 C 249.468 73.200,248.800 72.611,248.800 71.120 C 248.800 69.839,248.541 69.766,246.946 70.598 C 244.798 71.717,241.364 71.120,240.259 69.434 C 239.734 68.632,239.416 68.549,237.478 68.710 C 234.468 68.960,232.400 68.245,232.400 66.956 C 232.400 65.625,231.547 65.394,228.866 66.001 C 223.288 67.264,210.744 66.325,210.915 64.657 C 211.044 63.410,205.225 62.733,201.400 63.551 M276.800 83.817 C 276.800 83.936,277.160 84.420,277.600 84.892 C 278.040 85.364,278.400 85.550,278.400 85.304 C 278.400 85.058,278.117 84.574,277.771 84.229 C 277.121 83.578,276.800 83.442,276.800 83.817 M305.870 142.100 C 306.045 142.375,306.199 142.780,306.212 143.000 C 306.225 143.220,306.453 143.355,306.718 143.300 C 306.983 143.245,307.200 143.410,307.200 143.667 C 307.200 143.923,307.314 144.019,307.454 143.879 C 307.783 143.550,306.510 141.600,305.967 141.600 C 305.733 141.600,305.691 141.817,305.870 142.100 M306.819 147.580 C 306.500 147.782,306.131 147.881,305.999 147.799 C 305.868 147.718,305.760 148.090,305.760 148.626 C 305.760 150.109,306.692 149.676,307.325 147.900 C 307.612 147.095,307.599 147.087,306.819 147.580 M303.470 239.700 C 303.645 239.975,303.791 240.363,303.794 240.562 C 303.797 240.761,304.115 240.970,304.500 241.026 C 305.404 241.159,305.391 240.697,304.469 239.862 C 303.607 239.082,303.017 238.986,303.470 239.700 M95.078 242.536 C 94.493 243.430,94.509 243.471,95.413 243.422 C 96.585 243.360,97.014 242.979,96.365 242.578 C 96.032 242.373,95.980 242.443,96.200 242.800 C 96.422 243.160,96.368 243.227,96.027 243.017 C 95.443 242.656,95.873 242.156,97.000 241.885 C 97.628 241.734,97.574 241.683,96.746 241.646 C 96.049 241.616,95.484 241.917,95.078 242.536 M228.557 243.833 C 228.691 244.181,228.800 244.541,228.800 244.633 C 228.800 244.725,229.070 244.800,229.400 244.800 C 229.733 244.800,230.000 244.444,230.000 244.000 C 230.000 243.453,229.733 243.200,229.157 243.200 C 228.553 243.200,228.383 243.379,228.557 243.833 M230.406 245.620 C 230.399 246.362,231.167 247.200,231.855 247.200 C 232.127 247.200,232.325 246.861,232.294 246.447 C 232.261 246.011,231.977 245.735,231.618 245.791 C 231.278 245.843,230.868 245.687,230.706 245.443 C 230.516 245.157,230.410 245.220,230.406 245.620 M166.000 332.739 C 166.000 333.177,166.746 333.785,167.700 334.125 C 168.690 334.478,168.575 334.280,167.200 333.263 C 166.540 332.775,166.000 332.539,166.000 332.739 " stroke="none" fill="#fb6c04" fill-rule="evenodd"></path></g></svg>